HIERARCHY
ROOT hip
{
	OFFSET 0.000000 103.875999 0.000000
	CHANNELS 6 Xposition Yposition Zposition Zrotation Xrotation Yrotation
	JOINT pelvis
	{
		OFFSET 0.000000 1.960999 1.816590
		CHANNELS 3 Zrotation Xrotation Yrotation
		JOINT lThigh
		{
			OFFSET 8.366980 -10.167595 -1.218358
			CHANNELS 3 Zrotation Xrotation Yrotation
			JOINT lShin
			{
				OFFSET 2.192420 -43.463001 -0.492826
				CHANNELS 3 Zrotation Xrotation Yrotation
				JOINT lFoot
				{
					OFFSET 0.733200 -45.859291 -2.644826
					CHANNELS 3 Zrotation Xrotation Yrotation
					JOINT lToe
					{
						OFFSET 2.661800 -4.269930 12.393040
						CHANNELS 3 Zrotation Xrotation Yrotation
						JOINT lBigToe
						{
							OFFSET -2.523600 -0.126930 1.072181
							CHANNELS 3 Zrotation Xrotation Yrotation
							End Site
							{
								OFFSET -10.559400 -34.507198 -1.699234
							}
						}
					}
				}
			}
		}
		JOINT rThigh
		{
			OFFSET -8.366980 -10.167595 -1.218358
			CHANNELS 3 Zrotation Xrotation Yrotation
			JOINT rShin
			{
				OFFSET -2.192420 -43.463001 -0.492826
				CHANNELS 3 Zrotation Xrotation Yrotation
				JOINT rFoot
				{
					OFFSET -0.733200 -45.859291 -2.644826
					CHANNELS 3 Zrotation Xrotation Yrotation
					JOINT rToe
					{
						OFFSET -2.661800 -4.269930 12.393040
						CHANNELS 3 Zrotation Xrotation Yrotation
						JOINT rBigToe
						{
							OFFSET 2.523600 -0.126930 1.072181
							CHANNELS 3 Zrotation Xrotation Yrotation
							End Site
							{
								OFFSET 0.000000 25.847000 -1.288400
							}
						}
					}
				}
			}
		}
	}
	JOINT abdomen
	{
		OFFSET 0.000000 -1.185997 -1.501780
		CHANNELS 3 Zrotation Xrotation Yrotation
		JOINT abdomen2
		{
			OFFSET 0.000000 9.963997 0.213380
			CHANNELS 3 Zrotation Xrotation Yrotation
			JOINT chest
			{
				OFFSET 0.000000 13.134003 -3.257290
				CHANNELS 3 Zrotation Xrotation Yrotation
				JOINT neck
				{
					OFFSET 0.000000 26.038002 -0.123680
					CHANNELS 3 Zrotation Xrotation Yrotation
					JOINT head
					{
						OFFSET 0.000000 10.016998 2.387170
						CHANNELS 3 Zrotation Xrotation Yrotation
						JOINT rEye
						{
							OFFSET -3.223640 6.182999 7.817050
							CHANNELS 3 Zrotation Xrotation Yrotation
							End Site
							{
								OFFSET 3.222440 -11.542007 9.555910
							}
						}
						JOINT lEye
						{
							OFFSET 3.223640 6.182999 7.817050
							CHANNELS 3 Zrotation Xrotation Yrotation
							End Site
							{
								OFFSET 0.000000 -16.595993 10.558820
							}
						}
						JOINT upperJaw
						{
							OFFSET 0.000000 1.285004 2.248633
							CHANNELS 3 Zrotation Xrotation Yrotation
							End Site
							{
								OFFSET 0.000000 -20.257996 10.690930
							}
						}
						JOINT lowerJaw
						{
							OFFSET 0.000000 1.216995 2.034156
							CHANNELS 3 Zrotation Xrotation Yrotation
							JOINT tongueBase
							{
								OFFSET 0.000000 -3.218002 3.540424
								CHANNELS 3 Zrotation Xrotation Yrotation
								JOINT tongue01
								{
									OFFSET 0.000000 0.694000 0.233400
									CHANNELS 3 Zrotation Xrotation Yrotation
									JOINT tongue02
									{
										OFFSET 0.000000 0.355011 0.747810
										CHANNELS 3 Zrotation Xrotation Yrotation
										JOINT tongue03
										{
											OFFSET 0.000000 0.128998 0.763490
											CHANNELS 3 Zrotation Xrotation Yrotation
											JOINT tongue04
											{
												OFFSET 0.000000 0.017990 0.770580
												CHANNELS 3 Zrotation Xrotation Yrotation
												JOINT tongue05
												{
													OFFSET 0.000000 -0.021988 0.660880
													CHANNELS 3 Zrotation Xrotation Yrotation
													JOINT tongueTip
													{
														OFFSET 0.000000 -0.014999 0.628860
														CHANNELS 3 Zrotation Xrotation Yrotation
														End Site
														{
															OFFSET -14.874200 -2.454010 0.219530
														}
													}
												}
											}
										}
									}
								}
							}
						}
					}
				}
				JOINT rCollar
				{
					OFFSET -1.706880 20.075005 5.005592
					CHANNELS 3 Zrotation Xrotation Yrotation
					JOINT rShldr
					{
						OFFSET -13.645821 -0.047012 -4.849022
						CHANNELS 3 Zrotation Xrotation Yrotation
						JOINT rForeArm
						{
							OFFSET -28.325600 -0.974991 2.287890
							CHANNELS 3 Zrotation Xrotation Yrotation
							JOINT rHand
							{
								OFFSET -22.158203 -0.529999 10.831750
								CHANNELS 3 Zrotation Xrotation Yrotation
								JOINT rThumb1
								{
									OFFSET -0.785995 0.112000 2.581679
									CHANNELS 3 Zrotation Xrotation Yrotation
									JOINT rThumb2
									{
										OFFSET -0.360100 -0.878006 4.233100
										CHANNELS 3 Zrotation Xrotation Yrotation
										JOINT rThumb3
										{
											OFFSET -1.812706 -1.216003 2.222700
											CHANNELS 3 Zrotation Xrotation Yrotation
											End Site
											{
												OFFSET -3.125099 0.651993 4.385200
											}
										}
									}
								}
								JOINT rCarpal1
								{
									OFFSET -0.957100 1.113998 1.769480
									CHANNELS 3 Zrotation Xrotation Yrotation
									JOINT rIndex1
									{
										OFFSET -4.124596 0.487000 4.145100
										CHANNELS 3 Zrotation Xrotation Yrotation
										JOINT rIndex2
										{
											OFFSET -3.405205 -1.454010 2.768200
											CHANNELS 3 Zrotation Xrotation Yrotation
											JOINT rIndex3
											{
												OFFSET -1.453094 -1.794998 1.271301
												CHANNELS 3 Zrotation Xrotation Yrotation
												End Site
												{
													OFFSET -3.718102 -1.483994 0.688900
												}
											}
										}
									}
									JOINT rMid1
									{
										OFFSET -5.695396 0.209991 2.118400
										CHANNELS 3 Zrotation Xrotation Yrotation
										JOINT rMid2
										{
											OFFSET -3.976601 -1.539993 2.386300
											CHANNELS 3 Zrotation Xrotation Yrotation
											JOINT rMid3
											{
												OFFSET -1.404198 -1.925995 1.125000
												CHANNELS 3 Zrotation Xrotation Yrotation
												End Site
												{
													OFFSET -4.334801 -0.472000 0.055210
												}
											}
										}
									}
								}
								JOINT rCarpal2
								{
									OFFSET -2.095596 0.659988 -0.389390
									CHANNELS 3 Zrotation Xrotation Yrotation
									JOINT rRing1
									{
										OFFSET -5.039505 -0.089996 2.497069
										CHANNELS 3 Zrotation Xrotation Yrotation
										JOINT rRing2
										{
											OFFSET -3.792099 -1.552002 1.480600
											CHANNELS 3 Zrotation Xrotation Yrotation
											JOINT rRing3
											{
												OFFSET -1.465500 -1.807999 0.960900
												CHANNELS 3 Zrotation Xrotation Yrotation
												End Site
												{
													OFFSET -2.036697 -2.438004 -0.439301
												}
											}
										}
									}
									JOINT rPinky1
									{
										OFFSET -4.914101 -1.268997 0.359150
										CHANNELS 3 Zrotation Xrotation Yrotation
										JOINT rPinky2
										{
											OFFSET -3.147697 -1.684998 0.846230
											CHANNELS 3 Zrotation Xrotation Yrotation
											JOINT rPinky3
											{
												OFFSET -0.805504 -1.584991 0.795490
												CHANNELS 3 Zrotation Xrotation Yrotation
												End Site
												{
													OFFSET 14.874200 -2.454010 0.219530
												}
											}
										}
									}
								}
							}
						}
					}
				}
				JOINT lCollar
				{
					OFFSET 1.706880 20.075005 5.005592
					CHANNELS 3 Zrotation Xrotation Yrotation
					JOINT lShldr
					{
						OFFSET 13.645821 -0.047012 -4.849022
						CHANNELS 3 Zrotation Xrotation Yrotation
						JOINT lForeArm
						{
							OFFSET 28.325600 -0.974991 2.287890
							CHANNELS 3 Zrotation Xrotation Yrotation
							JOINT lHand
							{
								OFFSET 22.158203 -0.529999 10.831750
								CHANNELS 3 Zrotation Xrotation Yrotation
								JOINT lThumb1
								{
									OFFSET 0.785995 0.112000 2.581679
									CHANNELS 3 Zrotation Xrotation Yrotation
									JOINT lThumb2
									{
										OFFSET 0.360100 -0.878006 4.233100
										CHANNELS 3 Zrotation Xrotation Yrotation
										JOINT lThumb3
										{
											OFFSET 1.812706 -1.216003 2.222700
											CHANNELS 3 Zrotation Xrotation Yrotation
											End Site
											{
												OFFSET 3.125099 0.651993 4.385200
											}
										}
									}
								}
								JOINT lCarpal1
								{
									OFFSET 0.957100 1.113998 1.769480
									CHANNELS 3 Zrotation Xrotation Yrotation
									JOINT lIndex1
									{
										OFFSET 4.124596 0.487000 4.145100
										CHANNELS 3 Zrotation Xrotation Yrotation
										JOINT lIndex2
										{
											OFFSET 3.405205 -1.454010 2.768200
											CHANNELS 3 Zrotation Xrotation Yrotation
											JOINT lIndex3
											{
												OFFSET 1.453094 -1.794998 1.271301
												CHANNELS 3 Zrotation Xrotation Yrotation
												End Site
												{
													OFFSET 3.718102 -1.483994 0.688900
												}
											}
										}
									}
									JOINT lMid1
									{
										OFFSET 5.695396 0.209991 2.118400
										CHANNELS 3 Zrotation Xrotation Yrotation
										JOINT lMid2
										{
											OFFSET 3.976601 -1.539993 2.386300
											CHANNELS 3 Zrotation Xrotation Yrotation
											JOINT lMid3
											{
												OFFSET 1.404198 -1.925995 1.125000
												CHANNELS 3 Zrotation Xrotation Yrotation
												End Site
												{
													OFFSET 4.334801 -0.472000 0.055210
												}
											}
										}
									}
								}
								JOINT lCarpal2
								{
									OFFSET 2.095596 0.659988 -0.389390
									CHANNELS 3 Zrotation Xrotation Yrotation
									JOINT lRing1
									{
										OFFSET 5.039505 -0.089996 2.497069
										CHANNELS 3 Zrotation Xrotation Yrotation
										JOINT lRing2
										{
											OFFSET 3.792099 -1.552002 1.480600
											CHANNELS 3 Zrotation Xrotation Yrotation
											JOINT lRing3
											{
												OFFSET 1.465500 -1.807999 0.960900
												CHANNELS 3 Zrotation Xrotation Yrotation
												End Site
												{
													OFFSET 2.036697 -2.438004 -0.439301
												}
											}
										}
									}
									JOINT lPinky1
									{
										OFFSET 4.914101 -1.268997 0.359150
										CHANNELS 3 Zrotation Xrotation Yrotation
										JOINT lPinky2
										{
											OFFSET 3.147697 -1.684998 0.846230
											CHANNELS 3 Zrotation Xrotation Yrotation
											JOINT lPinky3
											{
												OFFSET 0.805504 -1.584991 0.795490
												CHANNELS 3 Zrotation Xrotation Yrotation
												End Site
												{
													OFFSET -10.006100 -17.102005 14.134940
												}
											}
										}
									}
								}
							}
						}
					}
				}
				JOINT rPectoral
				{
					OFFSET -7.747090 8.825996 2.793170
					CHANNELS 3 Zrotation Xrotation Yrotation
					End Site
					{
						OFFSET 10.006100 -17.102005 14.134940
					}
				}
				JOINT lPectoral
				{
					OFFSET 7.747090 8.825996 2.793170
					CHANNELS 3 Zrotation Xrotation Yrotation
					End Site
					{
						OFFSET 10.006100 -17.102005 14.134940
					}
				}
			}
		}
	}
}
MOTION
Frames:	4
Frame Time:	0.0333333
0.000000 -3.870023 0.000000 1.107322 -3.658821 10.014633 0.000000 0.000000 0.000000 0.362357 2.501005 13.369657 2.210574 18.311155 -3.362204 4.876858 -41.239872 -11.160943 9.397666 1.325313 24.011044 0.000000 0.000000 0.000000 -2.490337 -17.658474 -4.722279 -0.579534 21.603708 -4.660865 -2.983914 -24.135267 -0.769876 0.001649 -0.000702 -0.002711 0.000000 0.000000 0.000000 -0.986195 8.201651 -0.824904 0.000000 0.000000 0.000000 -1.361804 7.759414 -0.664623 0.245277 -9.505449 -2.561657 0.916598 4.153789 2.001013 0.000000 0.000000 0.000000 0.000000 0.000000 0.000000 0.000000 0.000000 0.000000 0.000000 0.000000 0.000000 0.000000 0.000000 0.000000 0.000000 0.000000 0.000000 0.000000 0.000000 0.000000 0.000000 0.000000 0.000000 0.000000 0.000000 0.000000 0.000000 0.000000 0.000000 0.000000 0.000000 0.000000 4.925744 -0.608659 -3.297841 69.906105 11.448877 -4.039631 0.005652 8.953849 -4.900720 11.250588 10.261069 -6.317955 -8.849865 5.141236 -5.314775 0.000000 0.000000 0.000000 -10.604378 -0.377968 10.858378 0.000000 0.000000 0.000000 -9.749486 -11.149188 -15.291119 -5.046476 3.219929 0.980047 3.854518 -7.407022 5.506818 -12.409342 7.495409 -7.310576 3.269496 -3.057905 6.735513 10.906431 -2.941418 8.094357 0.000000 0.000000 0.000000 -5.101833 6.136159 4.841339 6.530631 1.574115 1.515180 3.471223 -1.112485 2.491229 -4.468629 -0.661463 1.987669 11.770075 8.188980 -1.767467 20.659620 12.628792 5.003170 -5.151209 -0.384177 3.485655 -71.717911 12.263601 6.902462 1.394876 10.770487 9.330211 -2.459953 3.761688 6.017540 7.148822 7.900727 4.630045 7.024762 -13.410965 -3.833027 12.799018 0.790704 -8.040022 0.000000 0.000000 0.000000 10.764174 -11.594851 15.795016 5.252323 1.211917 -2.594361 -8.614643 -3.336523 -5.579936 13.461808 7.261331 7.511108 -2.392777 -3.755308 -6.345015 -13.905569 -0.960665 -8.779889 0.000000 0.000000 0.000000 6.538885 6.271759 -3.452233 -5.229661 1.693818 -1.465361 -13.608008 2.495201 -7.254889 6.206975 -0.966410 -1.292696 -10.659953 8.277632 2.067513 -27.561556 8.942832 -9.994330 0.000511 -0.000052 -0.395727 -0.000529 -0.000054 0.409704 
-2.688452 -4.111434 6.484807 0.765310 -4.070740 11.083231 0.000000 0.000000 0.000000 0.877031 6.692417 13.714149 2.381966 15.239037 -4.480393 4.491282 -41.997391 -10.678443 9.397666 1.325313 24.011044 0.000000 0.000000 0.000000 -2.197092 -17.399012 -4.732701 -0.713027 23.513584 -5.584675 -2.564532 -25.884432 -0.918092 0.001649 -0.000702 -0.002711 0.000000 0.000000 0.000000 -0.847765 8.488810 -0.788169 0.000000 0.000000 0.000000 -0.983300 8.336402 -0.610361 0.115042 -9.690251 -3.668202 2.138217 5.603471 1.188685 0.000000 0.000000 0.000000 0.000000 0.000000 0.000000 0.000000 0.000000 0.000000 0.000000 0.000000 0.000000 0.000000 0.000000 0.000000 0.000000 0.000000 0.000000 0.000000 0.000000 0.000000 0.000000 0.000000 0.000000 0.000000 0.000000 0.000000 0.000000 0.000000 0.000000 0.000000 0.000000 0.000000 4.925744 -0.608659 -3.297841 70.520363 9.249111 -4.204677 0.781214 7.676394 -4.092165 14.488964 12.451396 -9.143013 -8.849865 5.141236 -5.314775 0.000000 0.000000 0.000000 -10.604378 -0.377968 10.858378 0.000000 0.000000 0.000000 -9.749486 -11.149188 -15.291119 -5.046476 3.219929 0.980047 3.854518 -7.407022 5.506818 -12.409342 7.495409 -7.310576 3.269496 -3.057905 6.735513 10.906431 -2.941418 8.094357 0.000000 0.000000 0.000000 -5.101833 6.136159 4.841339 6.530631 1.574115 1.515180 3.471223 -1.112485 2.491229 -4.468629 -0.661463 1.987669 11.770075 8.188980 -1.767467 20.659620 12.628792 5.003170 -5.151209 -0.384177 3.485655 -70.987633 13.989717 5.798482 3.754866 12.386260 5.428443 -0.791679 2.422893 4.299453 7.148822 7.900727 4.630045 7.024762 -13.410965 -3.833027 12.799018 0.790704 -8.040022 0.000000 0.000000 0.000000 10.764174 -11.594851 15.795016 5.252323 1.211917 -2.594361 -8.614643 -3.336523 -5.579936 13.461808 7.261331 7.511108 -2.392777 -3.755308 -6.345015 -13.905569 -0.960665 -8.779889 0.000000 0.000000 0.000000 6.538885 6.271759 -3.452233 -5.229661 1.693818 -1.465361 -13.608008 2.495201 -7.254889 6.206975 -0.966410 -1.292696 -10.659953 8.277632 2.067513 -27.561556 8.942832 -9.994330 0.000511 -0.000052 -0.395727 -0.000529 -0.000054 0.409704 
-2.501393 -4.282187 7.788936 0.316961 -4.363723 12.591852 0.000000 0.000000 0.000000 1.716719 9.061310 13.970515 2.745562 13.408921 -6.304929 3.991928 -42.422073 -10.724357 9.397666 1.325313 24.011044 0.000000 0.000000 0.000000 -1.725585 -16.883596 -4.707224 -0.902705 24.880568 -6.964660 -2.022996 -27.472429 -1.047039 0.001649 -0.000702 -0.002711 0.000000 0.000000 0.000000 -0.554818 8.622462 -0.761417 0.000000 0.000000 0.000000 -0.550964 8.601470 -0.578533 0.164142 -9.276931 -4.849523 3.234491 6.815772 0.073925 0.000000 0.000000 0.000000 0.000000 0.000000 0.000000 0.000000 0.000000 0.000000 0.000000 0.000000 0.000000 0.000000 0.000000 0.000000 0.000000 0.000000 0.000000 0.000000 0.000000 0.000000 0.000000 0.000000 0.000000 0.000000 0.000000 0.000000 0.000000 0.000000 0.000000 0.000000 0.000000 0.000000 4.925744 -0.608659 -3.297841 70.976120 7.793433 -4.643802 1.296035 6.694110 -2.700885 17.192270 14.344330 -10.566009 -8.849865 5.141236 -5.314775 0.000000 0.000000 0.000000 -10.604378 -0.377968 10.858378 0.000000 0.000000 0.000000 -9.749486 -11.149188 -15.291119 -5.046476 3.219929 0.980047 3.854518 -7.407022 5.506818 -12.409342 7.495409 -7.310576 3.269496 -3.057905 6.735513 10.906431 -2.941418 8.094357 0.000000 0.000000 0.000000 -5.101833 6.136159 4.841339 6.530631 1.574115 1.515180 3.471223 -1.112485 2.491229 -4.468629 -0.661463 1.987669 11.770075 8.188980 -1.767467 20.659620 12.628792 5.003170 -5.151209 -0.384177 3.485655 -69.673508 17.597584 3.673517 6.936429 14.560202 2.018735 1.549470 0.340830 4.748641 7.148822 7.900727 4.630045 7.024762 -13.410965 -3.833027 12.799018 0.790704 -8.040022 0.000000 0.000000 0.000000 10.764174 -11.594851 15.795016 5.252323 1.211917 -2.594361 -8.614643 -3.336523 -5.579936 13.461808 7.261331 7.511108 -2.392777 -3.755308 -6.345015 -13.905569 -0.960665 -8.779889 0.000000 0.000000 0.000000 6.538885 6.271759 -3.452233 -5.229661 1.693818 -1.465361 -13.608008 2.495201 -7.254889 6.206975 -0.966410 -1.292696 -10.659953 8.277632 2.067513 -27.561556 8.942832 -9.994330 0.000511 -0.000052 -0.395727 -0.000529 -0.000054 0.409704 
-2.377485 -4.374806 9.252909 -0.177943 -4.531102 13.760983 0.000000 0.000000 0.000000 2.784519 10.170226 14.025028 2.828510 13.282572 -7.688491 3.802112 -43.391060 -10.665162 9.397666 1.325313 24.011044 0.000000 0.000000 0.000000 -0.664786 -17.955481 -4.062853 -2.506175 25.919907 -4.946013 -1.586763 -28.651878 -0.585474 0.001649 -0.000702 -0.002711 0.000000 0.000000 0.000000 -0.226065 8.666109 -0.758751 0.000000 0.000000 0.000000 -0.241798 8.682070 -0.591830 0.033077 -8.732214 -5.760262 4.484176 7.822573 -1.015232 0.000000 0.000000 0.000000 0.000000 0.000000 0.000000 0.000000 0.000000 0.000000 0.000000 0.000000 0.000000 0.000000 0.000000 0.000000 0.000000 0.000000 0.000000 0.000000 0.000000 0.000000 0.000000 0.000000 0.000000 0.000000 0.000000 0.000000 0.000000 0.000000 0.000000 0.000000 0.000000 0.000000 4.925744 -0.608659 -3.297841 70.932175 8.008637 -5.331145 -0.411446 7.634749 0.842792 15.877530 13.307572 -10.398639 -8.849865 5.141236 -5.314775 0.000000 0.000000 0.000000 -10.604378 -0.377968 10.858378 0.000000 0.000000 0.000000 -9.749486 -11.149188 -15.291119 -5.046476 3.219929 0.980047 3.854518 -7.407022 5.506818 -12.409342 7.495409 -7.310576 3.269496 -3.057905 6.735513 10.906431 -2.941418 8.094357 0.000000 0.000000 0.000000 -5.101833 6.136159 4.841339 6.530631 1.574115 1.515180 3.471223 -1.112485 2.491229 -4.468629 -0.661463 1.987669 11.770075 8.188980 -1.767467 20.659620 12.628792 5.003170 -5.151209 -0.384177 3.485655 -67.906944 21.387621 1.115840 10.238936 16.329840 -1.302540 1.330094 0.494750 6.451031 7.148822 7.900727 4.630045 7.024762 -13.410965 -3.833027 12.799018 0.790704 -8.040022 0.000000 0.000000 0.000000 10.764174 -11.594851 15.795016 5.252323 1.211917 -2.594361 -8.614643 -3.336523 -5.579936 13.461808 7.261331 7.511108 -2.392777 -3.755308 -6.345015 -13.905569 -0.960665 -8.779889 0.000000 0.000000 0.000000 6.538885 6.271759 -3.452233 -5.229661 1.693818 -1.465361 -13.608008 2.495201 -7.254889 6.206975 -0.966410 -1.292696 -10.659953 8.277632 2.067513 -27.561556 8.942832 -9.994330 0.000511 -0.000052 -0.395727 -0.000529 -0.000054 0.409704 
